<svg width="1808" height="577" viewBox="0 0 1808 577" fill="none" xmlns="http://www.w3.org/2000/svg">
<path d="M1659.66 441.27C1685.15 437 1710.19 430.83 1734.3 421.32C1750.49 414.93 1765.89 407.09 1779.28 395.79C1796.64 381.13 1807.23 362.98 1807.74 339.76C1808.3 314.32 1799.47 293.16 1778.77 277.68C1764.39 266.93 1747.82 261.72 1730.19 259.58C1713.88 257.6 1697.61 258.31 1681.35 260.39C1653.09 263.99 1627.75 274.53 1605.31 292.06C1587.04 306.32 1571.46 323.22 1558.05 341.97C1545.08 360.1 1533.01 378.88 1520.65 397.44C1509.11 414.77 1497.56 432.09 1483.43 447.49C1476.08 455.5 1468.12 462.83 1458.16 467.57C1449.04 471.91 1439.51 473.63 1429.51 471.4C1422.48 469.83 1417.85 465.42 1416.56 458.43C1415.67 453.6 1415.54 448.5 1415.96 443.59C1416.65 435.56 1419.48 427.99 1423.02 420.82C1428.83 409.04 1434.47 397.12 1441.14 385.82C1461.36 351.56 1481.87 317.47 1502.59 283.51C1530.52 237.75 1559.09 192.4 1589.92 148.5C1612.32 116.6 1635.74 85.4701 1660.32 55.2101C1661.73 53.4701 1663.85 51.9901 1663.2 48.6801C1661.42 48.4501 1659.51 47.9801 1657.59 47.9701C1628.26 47.9201 1598.92 48.0001 1569.59 47.8801C1564.76 47.8601 1561.15 49.2701 1559.02 53.7601C1558.59 54.6601 1557.98 55.4601 1557.46 56.3101C1509.7 134.23 1461.94 212.15 1414.18 290.06C1413.24 291.59 1412.23 293.08 1411.09 294.84C1409.93 293.5 1409.04 292.53 1408.21 291.5C1401.12 282.67 1392.46 275.76 1382.47 270.47C1368.68 263.17 1353.81 259.69 1338.39 258.75C1302.65 256.56 1269.72 265.25 1239.74 284.93C1217.35 299.62 1198.44 318.09 1182.04 339.04C1170.14 354.24 1159.2 370.18 1147.85 385.8C1132.27 407.23 1116.22 428.28 1097.19 446.86C1089.42 454.44 1081.19 461.46 1071.74 466.91C1063.71 471.55 1055.27 474.82 1045.73 474.53C1033.19 474.15 1026.82 467.46 1027.25 454.85C1027.47 448.44 1029.03 442.24 1031.7 436.52C1036.54 426.13 1041.45 415.71 1047.15 405.78C1062.02 379.91 1079.28 355.59 1096.74 331.44C1111.37 311.2 1126.33 291.19 1141.11 271.06C1142.32 269.42 1143.24 267.57 1144.82 264.93C1141.53 264.63 1139.29 264.25 1137.06 264.24C1110.39 264.2 1083.73 264.32 1057.06 264.12C1051.62 264.08 1048.14 265.87 1045.26 270.58C1032.75 291.02 1019.88 311.25 1007.22 331.6C993.55 353.57 978.19 374.27 961.08 393.67C942.85 414.33 923.12 433.41 900.68 449.53C887.79 458.79 874.3 466.98 859.03 471.83C852.62 473.86 846.08 474.94 839.34 474.39C830.05 473.63 824.77 466.98 826.73 457.87C827.52 454.21 828.98 450.45 831.07 447.36C834.69 442.01 838.66 436.79 843.15 432.15C850.78 424.25 858.85 416.77 866.85 409.23C879.09 397.69 891.56 386.38 902.12 373.21C908.19 365.64 913.7 357.68 916.8 348.4C922.64 330.87 919.45 315.26 906.2 302.04C900 295.85 892.61 291.32 884.82 287.47C876.02 283.12 867.07 279.06 858.22 274.82C850.25 271 842.47 266.85 835.85 260.84C827.58 253.34 824.16 244.05 825.54 233.02C825.83 230.72 826.54 228.47 826.92 226.18C827.44 223.1 826.42 221.77 823.4 221.53C822.41 221.45 821.4 221.51 820.4 221.58C806.11 222.65 791.82 223.57 777.55 224.87C769.1 225.64 760.71 227.1 752.28 228.09C747.88 228.61 744.76 230.51 743.31 234.83C743.05 235.61 742.6 236.33 742.25 237.09C721.81 280.12 699.68 322.23 674.29 362.58C658.58 387.55 641.82 411.79 622.04 433.78C612.22 444.7 601.91 455.16 589.35 462.98C584.31 466.12 578.77 468.59 573.22 470.72C567.35 472.98 561.12 472.94 555.02 471.24C548.24 469.35 543.98 464.9 543.36 457.87C542.99 453.63 542.96 449.07 544.12 445.04C546.52 436.76 549.35 428.54 552.84 420.66C562.44 399.02 574.49 378.66 586.89 358.53C617.65 308.6 651.48 260.75 685.82 213.24C688.3 209.81 691.02 208.17 695.13 207.77C711.05 206.22 726.92 204.18 742.85 202.81C773.39 200.18 803.93 197.41 834.52 195.55C872.44 193.24 910.39 191.1 948.35 190.15C995.32 188.97 1042.33 188.75 1089.32 188.75C1118.81 188.75 1148.29 189.88 1177.78 190.55C1184.09 190.69 1190.39 191.04 1196.84 191.29C1211.14 169.19 1225.36 147.19 1240.19 124.27C1183.13 121.51 1127.18 121.03 1071.23 120.81C1015.23 120.58 959.26 121.83 903.31 124.27C847.45 126.71 791.71 130.77 734.82 136.09C739.44 129.54 743.31 124 747.23 118.5C751.19 112.94 755.19 107.41 759.21 101.89C763.23 96.3701 767.34 90.9201 771.35 85.3901C775.3 79.9401 779.86 74.9101 783.25 69.1801C781.02 66.4901 778.57 66.9901 776.32 66.9901C747.49 66.9601 718.65 66.9701 689.82 66.9701C688.99 66.9701 688.15 66.9601 687.32 66.9901C684.11 67.1101 681.53 68.3401 679.86 71.2101C679.19 72.3601 678.43 73.4601 677.73 74.5901C663.18 97.8901 648.62 121.18 634.1 144.5C632.74 146.68 631.42 148.3 628.45 148.69C613.75 150.58 599.07 152.63 584.43 154.89C541.81 161.47 499.34 168.94 457.13 177.78C411.01 187.44 365.21 198.4 319.93 211.45C318.09 211.98 316.33 212.77 313.58 213.8C315.74 216.1 317.13 217.88 318.82 219.33C335.61 233.78 352.46 248.16 369.25 262.62C371.72 264.75 374.33 265.66 377.52 264.84C378.81 264.51 380.12 264.27 381.42 263.97C405.27 258.5 429.01 252.51 452.98 247.66C490.83 240 528.82 233.07 566.77 225.91C573.95 224.56 581.19 223.59 589.53 222.27C587.91 224.98 586.91 226.69 585.88 228.36C562.37 266.27 538.62 304.04 515.43 342.15C500.55 366.61 486.94 391.81 475.89 418.29C469.79 432.92 464.54 447.83 462.86 463.7C461.19 479.56 463.11 494.98 470.1 509.45C479.29 528.49 495.1 539.44 515.22 544.17C545.98 551.4 575.42 547.05 603.43 532.63C626.25 520.89 645.32 504.34 662.81 485.87C686.14 461.23 705.94 433.86 724.54 405.58C743.02 377.47 760.09 348.51 776.51 319.15C777.44 317.48 778.49 315.87 779.23 314.65C790.09 319.79 800.34 324.55 810.5 329.5C813.92 331.17 817.38 332.98 820.34 335.32C825.62 339.5 826.63 345.56 823.33 351.4C821.95 353.85 820.3 356.22 818.42 358.3C813.95 363.23 809.36 368.06 804.65 372.77C792.16 385.24 779.28 397.34 768.11 411.07C758.5 422.89 750.1 435.43 744.87 449.86C732.3 484.52 745.11 519.34 776.89 536.74C788.47 543.08 800.99 546.39 814.1 547.2C834.64 548.47 854.62 545.42 874.08 538.8C898.68 530.43 920.46 517.14 940.49 500.8C941.98 499.58 943.48 498.38 945.33 496.88C946.17 499.02 946.76 500.53 947.35 502.05C953.65 518.27 964.54 530.35 980.05 538.26C990.6 543.64 1001.9 546.39 1013.63 547.16C1038.72 548.82 1062.7 544.24 1085.53 533.66C1108.4 523.06 1127.7 507.71 1144.84 489.44C1145.92 488.29 1147.12 487.24 1148.62 485.78C1149.38 487.93 1149.91 489.47 1150.46 490.99C1156.65 507.96 1167.21 521.51 1182.27 531.53C1196.48 540.98 1212.29 546.09 1229.16 547.09C1272.15 549.64 1309.97 536.95 1341.8 507.52C1344.47 505.05 1347.08 502.51 1349.94 499.79C1350.51 501.12 1350.99 502.15 1351.41 503.21C1362.12 530.3 1382.64 544.73 1411.09 547.04C1445.06 549.79 1475.65 540.26 1502.13 518.39C1512.84 509.55 1522.38 499.59 1531.23 488.94C1532.35 487.6 1533.5 486.28 1534.84 484.72C1535.42 485.87 1535.77 486.43 1536 487.05C1541.03 500.73 1549.78 511.64 1561.1 520.62C1571.79 529.1 1583.8 535.13 1596.74 539.31C1628.27 549.52 1660.36 549.52 1692.59 543.82C1729 537.39 1760.39 520.65 1787.84 496.19C1792.63 491.92 1792.76 490.38 1788.81 485.34C1778.32 471.98 1767.83 458.62 1757.33 445.27C1752 438.49 1751.78 438.45 1745.45 444.21C1724.69 463.1 1700.71 475.29 1672.67 478.83C1660.04 480.43 1647.4 480.54 1634.94 477.36C1621.38 473.89 1611.25 466.27 1605.9 453.01C1605.44 451.87 1605.28 450.6 1604.94 449.24C1606.3 448.95 1607.26 448.69 1608.23 448.56C1625.38 446.16 1642.59 444.16 1659.66 441.3V441.27ZM1618.17 377.34C1632.93 354.71 1652.39 337.59 1677.89 327.97C1689.68 323.52 1701.9 321.13 1714.59 323.47C1727.36 325.82 1734.13 334.98 1732.24 347.42C1731.44 352.66 1729.05 357.16 1725.39 361.01C1720.6 366.04 1714.75 369.5 1708.5 372.34C1696.01 378.02 1682.84 381.69 1669.41 384.05C1650.42 387.4 1631.3 389.97 1612.23 392.85C1611.77 392.92 1611.27 392.78 1609.5 392.63C1612.64 387.05 1615.12 382 1618.17 377.33V377.34ZM1348.16 412.14C1333.5 438.88 1312.57 458.83 1283.73 469.79C1274.46 473.31 1264.81 474.9 1254.85 474.49C1239.68 473.86 1228.73 465.42 1224.48 450.81C1223.65 447.95 1223.04 444.99 1222.65 442.03C1222.26 439.07 1222.27 436.06 1222.18 434.36C1222.34 418.11 1226.35 404.13 1233.37 391.05C1247.31 365.06 1267.41 345.67 1295.25 335C1307.44 330.33 1320.09 328.7 1333.02 331.47C1349.64 335.03 1359.89 347.43 1360.37 364.36C1360.85 381.44 1356.31 397.32 1348.18 412.14H1348.16Z" fill="black"/>
<path d="M369.6 298.29C353.97 281.11 336.47 265.99 318.39 251.47C302.42 238.64 286.51 225.71 272.02 211.18C263.4 202.54 255.39 193.39 249.89 182.38C237.23 157.05 239.98 128.05 263.59 106.96C271.11 100.25 279.5 94.9201 288.58 90.6101C310.26 80.3201 333.37 75.7301 357.08 73.8101C381.93 71.8001 406.69 73.0101 431.35 76.5801C459.22 80.6201 486.05 88.1601 511.48 100.32C519.88 104.33 527.95 109.03 536.16 113.45C540.05 115.55 541.11 115.35 543.64 111.87C543.93 111.47 544.2 111.04 544.48 110.63C556.31 92.9001 568.14 75.1801 579.97 57.4501C580.52 56.6201 581.11 55.8001 581.56 54.9101C583 52.1301 582.74 50.6801 580.23 48.9501C578.46 47.7301 576.51 46.7301 574.6 45.7201C527.5 20.5801 476.96 7.17009 424.08 1.89009C399.48 -0.569909 374.85 -0.589909 350.21 1.64009C324.73 3.94009 299.76 8.60009 275.53 16.8801C248.45 26.1201 223.49 39.1301 202.43 58.8101C178.34 81.3301 163.85 108.72 161.72 141.91C159.8 171.87 166.78 199.68 183.2 225.02C195.62 244.18 210.88 260.89 227.81 276.03C244.06 290.57 260.97 304.39 277.56 318.55C293.29 331.98 308.48 345.96 321.01 362.55C331.6 376.56 339.47 391.81 341.81 409.47C344.79 431.98 339.1 451.69 322.8 467.95C313.82 476.9 303.18 483.34 291.58 488.25C269.17 497.73 245.53 501.24 221.42 502.21C205.25 502.86 189.09 502.29 173.02 500.26C155.94 498.1 139.22 494.46 123.37 487.53C112.12 482.61 101.78 476.35 93.52 467.09C84.03 456.45 79.71 444.06 81.46 429.83C82.75 419.36 87.16 410.08 93.09 401.47C99.66 391.94 107.74 383.79 116.52 376.32C131.04 363.96 147.07 353.82 163.73 344.63C183.87 333.52 204.8 324.07 226.11 315.44C228.33 314.54 230.99 314.2 232.44 311.43C231.72 310.54 231.13 309.54 230.29 308.84C214.16 295.39 198.2 281.77 184.14 266.09C181.82 263.51 179.19 263.12 176.04 264.62C172.29 266.41 168.41 267.93 164.61 269.63C132.6 283.91 101.71 300.2 73.57 321.28C53.3 336.45 35.08 353.65 21.11 374.96C2.84998 402.8 -4.03002 433.04 2.32998 465.9C7.86998 494.55 23.42 516.93 46.46 534.38C64.35 547.93 84.52 556.85 105.9 563.22C130.29 570.49 155.28 574.13 180.64 575.58C215.05 577.54 249.26 576.28 283.1 569.24C307.71 564.13 331.26 556.12 352.98 543.25C377.94 528.47 398.13 508.97 410.27 482.34C428.29 442.8 428.05 402.69 412 362.59C402.28 338.32 387.11 317.51 369.62 298.29H369.6Z" fill="black"/>
</svg>
